<svg width="24" height="24" viewBox="0 0 24 24" fill="none" xmlns="http://www.w3.org/2000/svg">
<mask id="path-1-inside-1_67_179" fill="white">
<path d="M12 5.99999V18ZM6 12H18Z"/>
<path d="M12 24C18.6274 24 24 18.6274 24 12C24 5.37258 18.6274 0 12 0C5.37258 0 0 5.37258 0 12C0 18.6274 5.37258 24 12 24Z"/>
</mask>
<path d="M13.5 5.99999C13.5 5.17156 12.8284 4.49999 12 4.49999C11.1716 4.49999 10.5 5.17156 10.5 5.99999H13.5ZM10.5 18C10.5 18.8284 11.1716 19.5 12 19.5C12.8284 19.5 13.5 18.8284 13.5 18H10.5ZM6 10.5C5.17157 10.5 4.5 11.1716 4.5 12C4.5 12.8284 5.17157 13.5 6 13.5V10.5ZM18 13.5C18.8284 13.5 19.5 12.8284 19.5 12C19.5 11.1716 18.8284 10.5 18 10.5V13.5ZM10.5 5.99999V18H13.5V5.99999H10.5ZM6 13.5H18V10.5H6V13.5ZM22.5 12C22.5 17.799 17.799 22.5 12 22.5V25.5C19.4558 25.5 25.5 19.4558 25.5 12H22.5ZM12 22.5C6.20101 22.5 1.5 17.799 1.5 12H-1.5C-1.5 19.4558 4.54416 25.5 12 25.5V22.5ZM1.5 12C1.5 6.20101 6.20101 1.5 12 1.5V-1.5C4.54416 -1.5 -1.5 4.54416 -1.5 12H1.5ZM12 1.5C17.799 1.5 22.5 6.20101 22.5 12H25.5C25.5 4.54416 19.4558 -1.5 12 -1.5V1.5Z" fill="white" mask="url(#path-1-inside-1_67_179)"/>
</svg>
