<svg width="24" height="17" viewBox="0 0 24 17" fill="none" xmlns="http://www.w3.org/2000/svg">
<path d="M12.09 0C4.5 0 0 8.25 0 8.25C0 8.25 4.5 16.5 12.09 16.5C19.5 16.5 24 8.25 24 8.25C24 8.25 19.5 0 12.09 0ZM12 2.75C15.33 2.75 18 5.225 18 8.25C18 11.3025 15.33 13.75 12 13.75C8.7 13.75 6 11.3025 6 8.25C6 5.225 8.7 2.75 12 2.75ZM12 5.5C10.35 5.5 9 6.7375 9 8.25C9 9.7625 10.35 11 12 11C13.65 11 15 9.7625 15 8.25C15 7.975 14.88 7.7275 14.82 7.48C14.58 7.92 14.1 8.25 13.5 8.25C12.66 8.25 12 7.645 12 6.875C12 6.325 12.36 5.885 12.84 5.665C12.57 5.5825 12.3 5.5 12 5.5Z" fill="white"/>
</svg>
